<?xml version="1.0" standalone="no"?>
<svg viewBox="0 0 200 200" xmlns="http://www.w3.org/2000/svg">
  <path fill="#A7F0BA" d="M41.2,-75C50.3,-66.1,52.5,-48.8,60.4,-34.9C68.3,-21,82,-10.5,81.8,-0.1C81.7,10.3,67.6,20.6,58.5,32.5C49.4,44.4,45.3,57.9,36.4,66.2C27.5,74.5,13.7,77.6,-0.6,78.6C-14.9,79.6,-29.8,78.5,-41.1,71.5C-52.4,64.6,-60.1,51.9,-62.5,39C-64.9,26.1,-61.9,13.1,-64.3,-1.4C-66.7,-15.8,-74.5,-31.7,-70.1,-41.1C-65.7,-50.5,-49.2,-53.5,-35.5,-59.8C-21.8,-66,-10.9,-75.4,2.6,-79.9C16,-84.3,32.1,-83.8,41.2,-75Z" transform="translate(100 100)" />
</svg>
